<?xml version="1.0" standalone="no"?><!DOCTYPE svg PUBLIC "-//W3C//DTD SVG 1.1//EN" "http://www.w3.org/Graphics/SVG/1.1/DTD/svg11.dtd"><svg width="100%" height="100%" viewBox="0 0 69 31" version="1.1" xmlns="http://www.w3.org/2000/svg" xmlns:xlink="http://www.w3.org/1999/xlink" xml:space="preserve" style="fill-rule:evenodd;clip-rule:evenodd;stroke-linejoin:round;stroke-miterlimit:1.41421;"><path d="M23.185,21.748l-15.875,0c-0.109,0 -0.198,0.09 -0.197,0.199l0.043,4.63c0.002,0.196 -0.252,0.274 -0.361,0.111l-2.928,-4.405c-0.021,-0.033 -0.033,-0.071 -0.033,-0.11l0,-13.216c0,-0.109 0.088,-0.198 0.197,-0.198l19.154,0c0.109,0 0.197,0.089 0.197,0.197l0,12.595c0,0.109 -0.088,0.197 -0.197,0.197M10.35,4.613l6.516,0l0,1.911l-6.516,0l0,-1.911ZM23.382,6.804l-4.584,0c0.014,-0.091 0.023,-0.184 0.023,-0.28l0,-1.911c0,-1.08 -0.876,-1.955 -1.955,-1.955l-6.516,0c-1.079,0 -1.955,0.875 -1.955,1.955l0,1.911c0,0.096 0.009,0.189 0.023,0.28l-4.584,0c-1.079,0 -1.955,0.876 -1.955,1.955l0,12.989c0,0.445 0.15,0.856 0.4,1.184l-0.006,0l4.712,6.844c0.593,0.863 1.746,0.35 1.746,-0.777l0,-5.296l14.651,0c1.079,0 1.955,-0.876 1.955,-1.955l0,-12.989c0,-1.079 -0.876,-1.955 -1.955,-1.955" style="fill:#0bad6c;fill-rule:nonzero;"/><g transform="matrix(0.24,0,0,0.24,-66.6469,-55.8981)"><path d="M433.709,260.197c-5.972,0.061 -10.405,2.401 -12.621,7.449l0,-20.501l-4.803,0l0,45.682l4.803,0l0,-15.946c0,-6.957 4.063,-11.82 10.958,-11.882c5.726,0 9.174,3.386 9.174,9.112l0,18.716l4.802,0l0,-20.009c0,-7.819 -4.556,-12.621 -12.313,-12.621Z" style="fill:#fff;fill-rule:nonzero;"/><path d="M469.54,260.258c-9.42,0 -16.069,6.711 -16.069,16.377c0,9.666 6.588,16.377 16.131,16.377c5.417,0 9.973,-1.971 13.052,-5.418l-2.648,-2.832c-2.524,2.647 -6.033,4.063 -10.035,4.063c-6.28,0 -10.897,-4.002 -11.759,-10.343l26.473,0c0.493,-11.02 -4.679,-18.285 -15.145,-18.224ZM458.212,274.542c0.739,-6.157 5.171,-10.159 11.328,-10.159c6.341,0 10.528,3.941 10.836,10.159l-22.164,0Z" style="fill:#fff;fill-rule:nonzero;"/><rect x="493.243" y="247.145" width="4.802" height="45.682" style="fill:#fff;fill-rule:nonzero;"/><rect x="510.358" y="247.145" width="4.802" height="45.682" style="fill:#fff;fill-rule:nonzero;"/><path d="M540.341,260.258c-9.604,0 -16.438,6.65 -16.438,16.315c0,9.728 6.834,16.439 16.438,16.439c9.604,0 16.438,-6.711 16.438,-16.439c0,-9.665 -6.834,-16.315 -16.438,-16.315ZM540.341,264.63c6.772,0 11.636,4.925 11.636,12.005c0,7.142 -4.864,12.067 -11.636,12.067c-6.772,0 -11.636,-4.925 -11.636,-12.067c0,-7.08 4.864,-12.005 11.636,-12.005Z" style="fill:#fff;fill-rule:nonzero;"/><path d="M436.798,314.757l0,8.465c-1.964,0.982 -4.116,1.59 -5.799,1.59c-5.425,0 -9.587,-4.209 -9.587,-9.774c0,-5.472 4.115,-9.681 9.493,-9.681c3.04,0 6.36,1.356 8.745,3.554l4.677,-5.658c-3.367,-2.993 -8.511,-4.864 -13.375,-4.864c-10.335,0 -18.052,7.155 -18.052,16.649c0,9.54 7.53,16.742 17.491,16.742c4.583,0 10.101,-1.777 13.609,-4.256l0,-12.767l-7.202,0Z" style="fill:#fff;fill-rule:nonzero;"/><path d="M475.204,306.199l-8.09,0l0,12.44c0,3.414 -1.824,5.939 -4.911,5.986c-2.572,0 -4.209,-1.824 -4.209,-4.817l0,-13.609l-8.09,0l0,15.901c0,5.892 3.554,9.633 9.026,9.633c3.647,0 6.453,-1.496 8.184,-4.489l0,4.162l8.09,0l0,-25.207Z" style="fill:#fff;fill-rule:nonzero;"/><path d="M493.595,305.918c-7.81,0 -13.142,5.145 -13.142,12.955c0,7.669 5.145,12.814 13.376,12.814c4.629,0 8.418,-1.637 10.99,-4.443l-4.256,-4.162c-1.684,1.683 -3.835,2.572 -6.033,2.572c-2.993,0 -5.144,-1.684 -5.939,-4.677l17.724,0c0.561,-9.213 -3.835,-15.059 -12.72,-15.059ZM488.45,316.628c0.515,-3.04 2.432,-5.098 5.238,-5.098c2.9,0 4.864,2.011 4.864,5.098l-10.102,0Z" style="fill:#fff;fill-rule:nonzero;"/><path d="M520.737,305.825c-5.846,0 -10.242,2.806 -10.242,7.997c-0.046,8.839 13.001,6.921 13.001,10.616c0,1.169 -1.169,1.73 -2.759,1.73c-2.806,0 -6.08,-1.122 -8.932,-3.133l-2.572,5.144c3.039,2.338 7.108,3.554 11.317,3.554c6.08,0 10.616,-2.852 10.616,-8.043c0.047,-8.792 -13.235,-7.109 -13.235,-10.57c0,-1.169 1.029,-1.73 2.479,-1.73c2.104,0 4.91,0.889 7.95,2.525l2.759,-5.237c-3.086,-1.824 -6.734,-2.853 -10.382,-2.853Z" style="fill:#fff;fill-rule:nonzero;"/><path d="M551.287,324.438c-1.216,0.514 -2.292,0.842 -3.133,0.842c-1.497,0.046 -2.339,-0.795 -2.339,-2.76l0,-9.867l6.594,0l0,-5.332l-6.594,0l0,-6.968l-8.044,0l0,7.015l-3.507,0l0,5.285l3.507,0l0,11.13c0,5.238 3.508,7.997 8.372,7.997c2.431,0 4.91,-0.655 6.734,-1.73l-1.59,-5.612Z" style="fill:#fff;fill-rule:nonzero;"/></g><path d="M20.968,12.728l-14.719,0c-0.51,0 -0.923,-0.413 -0.923,-0.923c0,-0.51 0.413,-0.923 0.923,-0.923l14.719,0c0.509,0 0.923,0.413 0.923,0.923c0,0.51 -0.414,0.923 -0.923,0.923" style="fill:#0bad6c;fill-rule:nonzero;"/><path d="M20.968,16.195l-14.719,0c-0.51,0 -0.923,-0.413 -0.923,-0.923c0,-0.51 0.413,-0.923 0.923,-0.923l14.719,0c0.509,0 0.923,0.413 0.923,0.923c0,0.51 -0.414,0.923 -0.923,0.923" style="fill:#0bad6c;fill-rule:nonzero;"/><path d="M20.968,19.585l-8.209,0c-0.51,0 -0.923,-0.413 -0.923,-0.923c0,-0.51 0.413,-0.923 0.923,-0.923l8.209,0c0.509,0 0.923,0.413 0.923,0.923c0,0.51 -0.414,0.923 -0.923,0.923" style="fill:#0bad6c;fill-rule:nonzero;"/></svg>